# xmcd
#
# Track frame offsets:
#	150
#	25285
#	51858
#	76517
#	100747
#	128832
#	159030
#	181127
#	210962
#	227497
#	243677
#
# Disc length: 3678 seconds
#
# Revision: 1
# Processed by: cddbd v1.5.2PL0 Copyright (c) Steve Scherf et al.
# Submitted via: EZCDAudioConverter 1.3.4.1
#
DISCID=760e5c0b
DTITLE=Lee 'Scratch' Perry - Technomajikal
DYEAR=1997
DGENRE=
TTITLE0=Maxi Merlin
TTITLE1=UFO Attack [Ambient Version]
TTITLE2=Technologically
TTITLE3=L.S.D. - L.S.P. [Flute Mix]
TTITLE4=Unitcorn
TTITLE5=X-Perry-Ment
TTITLE6=L.S.D. - L.S.P. [Hard Trance Mix]
TTITLE7=UFO Attack [Instrumental]
TTITLE8=Maxi Merlin [Radio Version]
TTITLE9=X-Perry-Ment [Radio Version]
TTITLE10=Crazy House
EXTD=
EXTT0=
EXTT1=
EXTT2=
EXTT3=
EXTT4=
EXTT5=
EXTT6=
EXTT7=
EXTT8=
EXTT9=
EXTT10=
PLAYORDER=
